<?xml version="1.0" encoding="utf-8"?>
<!-- Generator: Adobe Illustrator 15.0.2, SVG Export Plug-In . SVG Version: 6.00 Build 0)  -->
<!DOCTYPE svg PUBLIC "-//W3C//DTD SVG 1.1//EN" "http://www.w3.org/Graphics/SVG/1.1/DTD/svg11.dtd">
<svg version="1.1" id="Calque_1" xmlns="http://www.w3.org/2000/svg" xmlns:xlink="http://www.w3.org/1999/xlink" x="0px" y="0px"
	 width="36px" height="324px" viewBox="0 0 36 324" enable-background="new 0 0 36 324" xml:space="preserve">
<g>
	<rect y="0" fill="#607D8B" fill-opacity="0" width="36" height="324"/>
	<path fill="none" stroke="#4CAF50" stroke-width="3" stroke-linecap="round" stroke-linejoin="round" stroke-miterlimit="10" d="
		M9.455,116.348c2.175-1.83,4.981-2.934,8.045-2.934c0.192,0,0.384,0.004,0.574,0.014"/>
	
		<line fill="none" stroke="#4CAF50" stroke-width="3" stroke-linecap="round" stroke-linejoin="round" stroke-miterlimit="10" x1="16.255" y1="132" x2="10.074" y2="125.922"/>
	
		<line fill="none" stroke="#4CAF50" stroke-width="3" stroke-linecap="round" stroke-linejoin="round" stroke-miterlimit="10" x1="21.774" y1="124.867" x2="16.255" y2="132"/>
	
		<line fill="none" stroke="#4CAF50" stroke-width="3" stroke-linecap="round" stroke-linejoin="round" stroke-miterlimit="10" x1="27.142" y1="117.931" x2="21.774" y2="124.867"/>
	
		<line fill="none" stroke="#4CAF50" stroke-width="3" stroke-linecap="round" stroke-linejoin="round" stroke-miterlimit="10" x1="16.255" y1="96" x2="10.074" y2="89.922"/>
	
		<line fill="none" stroke="#4CAF50" stroke-width="3" stroke-linecap="round" stroke-linejoin="round" stroke-miterlimit="10" x1="21.774" y1="88.867" x2="16.255" y2="96"/>
	
		<line fill="none" stroke="#4CAF50" stroke-width="3" stroke-linecap="round" stroke-linejoin="round" stroke-miterlimit="10" x1="27.142" y1="81.931" x2="21.774" y2="88.867"/>
	
		<line fill="none" stroke="#4CAF50" stroke-width="3" stroke-linecap="round" stroke-linejoin="round" stroke-miterlimit="10" x1="16.255" y1="60" x2="10.074" y2="53.922"/>
	
		<line fill="none" stroke="#4CAF50" stroke-width="3" stroke-linecap="round" stroke-linejoin="round" stroke-miterlimit="10" x1="21.774" y1="52.867" x2="16.255" y2="60"/>
	
		<line fill="none" stroke="#4CAF50" stroke-width="3" stroke-linecap="round" stroke-linejoin="round" stroke-miterlimit="10" x1="16.255" y1="24" x2="10.074" y2="17.922"/>
	<path fill="none" stroke="#4CAF50" stroke-width="3" stroke-linecap="round" stroke-linejoin="round" stroke-miterlimit="10" d="
		M9.455,152.348c2.175-1.83,4.981-2.934,8.045-2.934c0.192,0,0.384,0.004,0.574,0.014"/>
	<path fill="none" stroke="#4CAF50" stroke-width="3" stroke-linecap="round" stroke-linejoin="round" stroke-miterlimit="10" d="
		M5.036,160.965c0.26-3.453,1.922-6.517,4.419-8.617"/>
	<path fill="none" stroke="#4CAF50" stroke-width="3" stroke-linecap="round" stroke-linejoin="round" stroke-miterlimit="10" d="
		M9.455,188.348c2.175-1.83,4.981-2.935,8.045-2.935c0.192,0,0.384,0.005,0.574,0.015"/>
	<path fill="none" stroke="#4CAF50" stroke-width="3" stroke-linecap="round" stroke-linejoin="round" stroke-miterlimit="10" d="
		M5.036,196.965c0.26-3.453,1.922-6.517,4.419-8.617"/>
	<path fill="none" stroke="#4CAF50" stroke-width="3" stroke-linecap="round" stroke-linejoin="round" stroke-miterlimit="10" d="
		M8.476,206.563C6.323,204.317,5,201.27,5,197.914c0-0.318,0.013-0.636,0.036-0.948"/>
	<path fill="none" stroke="#4CAF50" stroke-width="3" stroke-linecap="round" stroke-linejoin="round" stroke-miterlimit="10" d="
		M9.455,224.348c2.175-1.83,4.981-2.935,8.045-2.935c0.192,0,0.384,0.005,0.574,0.015"/>
	<path fill="none" stroke="#4CAF50" stroke-width="3" stroke-linecap="round" stroke-linejoin="round" stroke-miterlimit="10" d="
		M5.036,232.965c0.26-3.453,1.922-6.517,4.419-8.617"/>
	<path fill="none" stroke="#4CAF50" stroke-width="3" stroke-linecap="round" stroke-linejoin="round" stroke-miterlimit="10" d="
		M8.476,242.563C6.323,240.317,5,237.27,5,233.914c0-0.318,0.013-0.636,0.036-0.948"/>
	<path fill="none" stroke="#4CAF50" stroke-width="3" stroke-linecap="round" stroke-linejoin="round" stroke-miterlimit="10" d="
		M18.074,246.401c-0.19,0.01-0.381,0.014-0.574,0.014c-3.547,0-6.75-1.479-9.024-3.852"/>
	<path fill="none" stroke="#4CAF50" stroke-width="3" stroke-linecap="round" stroke-linejoin="round" stroke-miterlimit="10" d="
		M9.455,260.348c2.175-1.83,4.981-2.935,8.045-2.935c0.192,0,0.384,0.005,0.574,0.015"/>
	<path fill="none" stroke="#4CAF50" stroke-width="3" stroke-linecap="round" stroke-linejoin="round" stroke-miterlimit="10" d="
		M5.036,268.965c0.26-3.453,1.922-6.517,4.419-8.617"/>
	<path fill="none" stroke="#4CAF50" stroke-width="3" stroke-linecap="round" stroke-linejoin="round" stroke-miterlimit="10" d="
		M8.476,278.563C6.323,276.317,5,273.27,5,269.914c0-0.318,0.013-0.636,0.036-0.948"/>
	<path fill="none" stroke="#4CAF50" stroke-width="3" stroke-linecap="round" stroke-linejoin="round" stroke-miterlimit="10" d="
		M18.074,282.401c-0.19,0.01-0.381,0.014-0.574,0.014c-3.547,0-6.75-1.479-9.024-3.852"/>
	<path fill="none" stroke="#4CAF50" stroke-width="3" stroke-linecap="round" stroke-linejoin="round" stroke-miterlimit="10" d="
		M27.067,277.959c-2.178,2.588-5.387,4.278-8.993,4.44"/>
	<path fill="none" stroke="#4CAF50" stroke-width="3" stroke-linecap="round" stroke-linejoin="round" stroke-miterlimit="10" d="
		M9.455,296.348c2.175-1.83,4.981-2.935,8.045-2.935c0.192,0,0.384,0.005,0.574,0.015"/>
	<path fill="none" stroke="#4CAF50" stroke-width="3" stroke-linecap="round" stroke-linejoin="round" stroke-miterlimit="10" d="
		M5.036,304.965c0.26-3.453,1.922-6.517,4.419-8.617"/>
	<path fill="none" stroke="#4CAF50" stroke-width="3" stroke-linecap="round" stroke-linejoin="round" stroke-miterlimit="10" d="
		M8.476,314.563C6.323,312.317,5,309.27,5,305.914c0-0.318,0.013-0.636,0.036-0.948"/>
	<path fill="none" stroke="#4CAF50" stroke-width="3" stroke-linecap="round" stroke-linejoin="round" stroke-miterlimit="10" d="
		M18.074,318.401c-0.19,0.01-0.381,0.014-0.574,0.014c-3.547,0-6.75-1.479-9.024-3.852"/>
	<path fill="none" stroke="#4CAF50" stroke-width="3" stroke-linecap="round" stroke-linejoin="round" stroke-miterlimit="10" d="
		M27.067,313.959c-2.178,2.588-5.387,4.278-8.993,4.44"/>
	<path fill="none" stroke="#4CAF50" stroke-width="3" stroke-linecap="round" stroke-linejoin="round" stroke-miterlimit="10" d="
		M29.968,304.997c0.021,0.304,0.033,0.607,0.033,0.916c0,3.064-1.104,5.871-2.934,8.046"/>
	
		<line fill="none" stroke="#4CAF50" stroke-width="3" stroke-linecap="round" stroke-linejoin="round" stroke-miterlimit="10" x1="16.255" y1="168" x2="10.074" y2="161.922"/>
	
		<line fill="none" stroke="#4CAF50" stroke-width="3" stroke-linecap="round" stroke-linejoin="round" stroke-miterlimit="10" x1="21.774" y1="160.866" x2="16.255" y2="168"/>
	
		<line fill="none" stroke="#4CAF50" stroke-width="3" stroke-linecap="round" stroke-linejoin="round" stroke-miterlimit="10" x1="27.142" y1="153.931" x2="21.774" y2="160.866"/>
	
		<line fill="none" stroke="#4CAF50" stroke-width="3" stroke-linecap="round" stroke-linejoin="round" stroke-miterlimit="10" x1="16.255" y1="204" x2="10.074" y2="197.922"/>
	
		<line fill="none" stroke="#4CAF50" stroke-width="3" stroke-linecap="round" stroke-linejoin="round" stroke-miterlimit="10" x1="21.774" y1="196.866" x2="16.255" y2="204"/>
	
		<line fill="none" stroke="#4CAF50" stroke-width="3" stroke-linecap="round" stroke-linejoin="round" stroke-miterlimit="10" x1="27.142" y1="189.931" x2="21.774" y2="196.866"/>
	
		<line fill="none" stroke="#4CAF50" stroke-width="3" stroke-linecap="round" stroke-linejoin="round" stroke-miterlimit="10" x1="16.255" y1="240" x2="10.074" y2="233.922"/>
	
		<line fill="none" stroke="#4CAF50" stroke-width="3" stroke-linecap="round" stroke-linejoin="round" stroke-miterlimit="10" x1="21.774" y1="232.866" x2="16.255" y2="240"/>
	
		<line fill="none" stroke="#4CAF50" stroke-width="3" stroke-linecap="round" stroke-linejoin="round" stroke-miterlimit="10" x1="27.142" y1="225.931" x2="21.774" y2="232.866"/>
	
		<line fill="none" stroke="#4CAF50" stroke-width="3" stroke-linecap="round" stroke-linejoin="round" stroke-miterlimit="10" x1="16.255" y1="276" x2="10.074" y2="269.922"/>
	
		<line fill="none" stroke="#4CAF50" stroke-width="3" stroke-linecap="round" stroke-linejoin="round" stroke-miterlimit="10" x1="21.774" y1="268.866" x2="16.255" y2="276"/>
	
		<line fill="none" stroke="#4CAF50" stroke-width="3" stroke-linecap="round" stroke-linejoin="round" stroke-miterlimit="10" x1="27.142" y1="261.931" x2="21.774" y2="268.866"/>
	
		<line fill="none" stroke="#4CAF50" stroke-width="3" stroke-linecap="round" stroke-linejoin="round" stroke-miterlimit="10" x1="16.255" y1="312" x2="10.074" y2="305.922"/>
	
		<line fill="none" stroke="#4CAF50" stroke-width="3" stroke-linecap="round" stroke-linejoin="round" stroke-miterlimit="10" x1="21.774" y1="304.866" x2="16.255" y2="312"/>
	
		<line fill="none" stroke="#4CAF50" stroke-width="3" stroke-linecap="round" stroke-linejoin="round" stroke-miterlimit="10" x1="27.142" y1="297.931" x2="21.774" y2="304.866"/>
</g>
</svg>
