<?xml version="1.0" encoding="utf-8"?>
<!-- Generator: Adobe Illustrator 15.0.2, SVG Export Plug-In . SVG Version: 6.00 Build 0)  -->
<!DOCTYPE svg PUBLIC "-//W3C//DTD SVG 1.1//EN" "http://www.w3.org/Graphics/SVG/1.1/DTD/svg11.dtd">
<svg version="1.1" id="Calque_1" xmlns="http://www.w3.org/2000/svg" xmlns:xlink="http://www.w3.org/1999/xlink" x="0px" y="0px"
	 width="36px" height="864px" viewBox="0 0 36 864" enable-background="new 0 0 36 864" xml:space="preserve">
<g>
	<rect y="0" fill="#607D8B" fill-opacity="0" width="36" height="864"/>
	<g>
		<path fill="#FFC107" d="M24.897,239.99c-0.172-0.783-0.543-1.459-0.942-2h-0.008c-0.683-0.922-1.444-1.453-1.444-1.453
			c-0.27-0.188-0.488-0.364-0.684-0.536c-1.141-1.013-1.113-1.746-1.113-1.746V234h-5.41v0.254c0,0,0.027,0.733-1.113,1.746
			c-0.194,0.172-0.414,0.35-0.684,0.536c0,0-0.762,0.531-1.443,1.453h-0.008c-0.4,0.541-0.771,1.217-0.943,2
			c-0.064,0.293-0.104,0.603-0.104,0.924v1.076v2h14v-2v-1.076C25.001,240.592,24.964,240.282,24.897,239.99z"/>
	</g>
	<g>
		<path fill="#FFC107" d="M24.897,203.99c-0.172-0.783-0.543-1.459-0.942-2h-0.008c-0.683-0.922-1.444-1.453-1.444-1.453
			c-0.27-0.188-0.488-0.364-0.684-0.536c-1.141-1.013-1.113-1.746-1.113-1.746V198h-5.41v0.254c0,0,0.027,0.733-1.113,1.746
			c-0.194,0.172-0.414,0.35-0.684,0.536c0,0-0.762,0.531-1.443,1.453h-0.008c-0.4,0.541-0.771,1.217-0.943,2
			c-0.064,0.293-0.104,0.603-0.104,0.924v1.076v2h14v-2v-1.076C25.001,204.592,24.964,204.282,24.897,203.99z"/>
	</g>
	<path fill="#FFC107" d="M20.706,162v-0.257c0,0-0.027-0.733,1.113-1.743h-7.637c1.141,1.01,1.113,1.743,1.113,1.743V162h1.738
		l-0.007,2h-2.845c-0.195,0.172-0.414,0.35-0.685,0.536c0,0-0.762,0.531-1.444,1.453h-0.008c-0.398,0.541-0.771,1.217-0.941,2
		c-0.065,0.293-0.104,0.603-0.104,0.924v1.076v2h6v0.007l2,0.007v-0.014h6v-2v-1.076c0-0.321-0.038-0.631-0.104-0.924
		c-0.172-0.783-0.543-1.459-0.941-2h-0.008c-0.684-0.922-1.444-1.453-1.444-1.453c-0.27-0.188-0.487-0.364-0.684-0.536h-2.792
		l0.007-1.997"/>
	<g>
		<path fill="#FFC107" d="M20.706,126v-0.256c0,0-0.027-0.734,1.113-1.744c0.195-0.172,0.414-0.351,0.684-0.537
			c0,0,0.768-0.535,1.452-1.463H12.048c0.685,0.928,1.451,1.463,1.451,1.463c0.27,0.188,0.488,0.365,0.684,0.537
			c1.142,1.01,1.113,1.744,1.113,1.744V126h1.739l-0.013,3.989h-4.975c-0.4,0.541-0.771,1.218-0.943,2
			c-0.064,0.294-0.104,0.603-0.104,0.925v1.075v2h6v0.008l2,0.006v-0.014h6v-2v-1.075c0-0.322-0.037-0.631-0.104-0.925
			c-0.172-0.782-0.543-1.459-0.942-2h-4.935l0.014-3.986"/>
	</g>
	<path fill="#FFC107" d="M20.706,90v-0.256c0,0-0.027-0.734,1.113-1.744c0.195-0.172,0.414-0.351,0.684-0.538
		c0,0,0.768-0.535,1.452-1.463c0.399-0.542,0.771-1.217,0.942-2H11.104c0.172,0.783,0.543,1.458,0.941,2
		c0.686,0.928,1.452,1.463,1.452,1.463c0.271,0.188,0.488,0.366,0.685,0.538c1.141,1.01,1.113,1.744,1.113,1.744V90h1.738
		l-0.02,5.99h-5.91C11.039,96.283,11,96.592,11,96.914v1.076v2h6v0.006l2,0.007V99.99h6v-2v-1.076c0-0.322-0.038-0.631-0.104-0.924
		h-5.883l0.021-5.987"/>
	<g>
		<path fill="#FFC107" d="M20.706,54v-0.255c0,0-0.027-0.734,1.113-1.745c0.195-0.172,0.414-0.351,0.684-0.537
			c0,0,0.768-0.535,1.452-1.463c0.399-0.542,0.771-1.217,0.942-2c0.064-0.294,0.104-0.604,0.104-0.926V46h-14v1.074
			c0,0.322,0.038,0.632,0.104,0.926c0.173,0.783,0.544,1.458,0.943,2c0.685,0.928,1.451,1.463,1.451,1.463
			c0.27,0.188,0.488,0.365,0.684,0.537c1.142,1.011,1.113,1.745,1.113,1.745V54h1.739l-0.026,7.99h-6.008v2h6v0.006l2,0.007V63.99h6
			v-2h-5.992l0.026-7.987"/>
	</g>
	<g>
		<path fill="#FFC107" d="M20.706,18v-0.255c0,0-0.027-0.734,1.113-1.745c0.195-0.172,0.414-0.351,0.684-0.537
			c0,0,0.768-0.535,1.452-1.463c0.399-0.542,0.771-1.217,0.942-2c0.064-0.294,0.104-0.604,0.104-0.926V10V8h-14v2v1.074
			c0,0.322,0.038,0.632,0.104,0.926c0.173,0.783,0.544,1.458,0.943,2c0.685,0.928,1.451,1.463,1.451,1.463
			c0.27,0.188,0.488,0.365,0.684,0.537c1.142,1.011,1.113,1.745,1.113,1.745V18h1.739l-0.034,9.997l2,0.007l0.034-10"/>
	</g>
	<g>
		<g>
			<path fill="#607D8B" d="M24.14,42c-0.861,0-1.207,0-1.207,0H18h-4.932c0,0-0.347,0-1.207,0C11,42,11,42.912,11,42.912V44v3.074
				c0,2.653,2.498,4.389,2.498,4.389c1.849,1.279,1.797,2.282,1.797,2.282V54v0.255c0,0,0.052,1.003-1.797,2.282
				c0,0-2.498,1.733-2.498,4.389V64v1.088c0,0,0,0.912,0.861,0.912c0.86,0,1.207,0,1.207,0H18h4.933c0,0,0.346,0,1.207,0
				C25,66,25,65.088,25,65.088V64v-3.074c0-2.654-2.498-4.389-2.498-4.389c-1.848-1.279-1.797-2.282-1.797-2.282V54v-0.255
				c0,0-0.051-1.003,1.797-2.282c0,0,2.498-1.734,2.498-4.389V44v-1.088C25.001,42.912,25.001,42,24.14,42z M23.228,47.074
				c0,1.671-1.729,2.928-1.734,2.932c-2.334,1.616-2.563,3.186-2.561,3.742V54v0.251c-0.002,0.558,0.225,2.126,2.549,3.734
				c0.018,0.013,1.746,1.27,1.746,2.939v3.074H12.774v-3.074c0-1.671,1.729-2.928,1.734-2.932c2.334-1.616,2.563-3.187,2.561-3.742
				v-0.252v-0.251c0.002-0.559-0.225-2.126-2.549-3.735c-0.019-0.012-1.746-1.269-1.746-2.938V44h10.453V47.074L23.228,47.074z"/>
		</g>
	</g>
	<g>
		<g>
			<path fill="#607D8B" d="M24.14,78c-0.861,0-1.207,0-1.207,0H18h-4.932c0,0-0.347,0-1.207,0C11,78,11,78.912,11,78.912V80v3.074
				c0,2.653,2.498,4.389,2.498,4.389c1.849,1.28,1.797,2.282,1.797,2.282v0.256v0.254c0,0,0.052,1.004-1.797,2.283
				c0,0-2.498,1.733-2.498,4.389v3.074v1.088c0,0,0,0.912,0.861,0.912c0.86,0,1.207,0,1.207,0H18h4.933c0,0,0.346,0,1.207,0
				c0.86,0,0.86-0.912,0.86-0.912v-1.088v-3.074c0-2.654-2.498-4.389-2.498-4.389c-1.848-1.279-1.797-2.283-1.797-2.283v-0.254
				v-0.256c0,0-0.051-1.002,1.797-2.282c0,0,2.498-1.734,2.498-4.389V80v-1.088C25.001,78.912,25.001,78,24.14,78z M23.228,83.074
				c0,1.671-1.729,2.928-1.734,2.932c-2.334,1.616-2.563,3.186-2.561,3.743v0.252v0.249c-0.002,0.559,0.225,2.127,2.549,3.735
				c0.018,0.013,1.746,1.269,1.746,2.939v3.074H12.774v-3.074c0-1.672,1.729-2.928,1.734-2.932c2.334-1.617,2.563-3.187,2.561-3.742
				v-0.252v-0.252c0.002-0.558-0.225-2.125-2.549-3.735c-0.019-0.012-1.746-1.269-1.746-2.939v-3.073h10.453V83.074L23.228,83.074z"
				/>
		</g>
	</g>
	<g>
		<g>
			<path fill="#607D8B" d="M24.14,114c-0.861,0-1.207,0-1.207,0H18h-4.932c0,0-0.347,0-1.207,0C11,114,11,114.912,11,114.912V116
				v3.074c0,2.653,2.498,4.389,2.498,4.389c1.849,1.279,1.797,2.281,1.797,2.281V126v0.254c0,0,0.052,1.004-1.797,2.283
				c0,0-2.498,1.733-2.498,4.389V136v1.088c0,0,0,0.912,0.861,0.912c0.86,0,1.207,0,1.207,0H18h4.933c0,0,0.346,0,1.207,0
				c0.86,0,0.86-0.912,0.86-0.912V136v-3.074c0-2.654-2.498-4.389-2.498-4.389c-1.848-1.279-1.797-2.283-1.797-2.283V126v-0.256
				c0,0-0.051-1.002,1.797-2.281c0,0,2.498-1.734,2.498-4.389V116v-1.088C25.001,114.912,25.001,114,24.14,114z M23.228,119.074
				c0,1.67-1.729,2.928-1.734,2.932c-2.334,1.615-2.563,3.186-2.561,3.742V126v0.25c-0.002,0.559,0.225,2.127,2.549,3.735
				c0.018,0.013,1.746,1.269,1.746,2.939v3.074H12.774v-3.074c0-1.672,1.729-2.928,1.734-2.932c2.334-1.617,2.563-3.187,2.561-3.742
				v-0.252v-0.252c0.002-0.558-0.225-2.125-2.549-3.734c-0.019-0.012-1.746-1.27-1.746-2.939V116h10.453V119.074L23.228,119.074z"/>
		</g>
	</g>
	<g>
		<path fill="#FFC107" d="M26.282,276.653l-0.188-1.059c-0.057-0.318-0.146-0.615-0.263-0.894c-0.306-0.741-0.786-1.342-1.274-1.807
			l-0.008,0.001c-0.832-0.788-1.676-1.179-1.676-1.179c-0.297-0.14-0.543-0.275-0.766-0.41c-1.299-0.799-1.4-1.525-1.4-1.525
			l-0.043-0.252l-5.328,0.939l0.045,0.252c0,0,0.153,0.719-0.795,1.912c-0.162,0.203-0.346,0.416-0.578,0.646
			c0,0-0.658,0.655-1.17,1.684l-0.009,0.001c-0.3,0.604-0.547,1.332-0.581,2.133c-0.014,0.301,0.004,0.61,0.059,0.93l0.188,1.06
			l0.349,1.969l13.787-2.431L26.282,276.653z"/>
	</g>
	<g>
		<path fill="#FFC107" d="M27.312,311.114l-0.367-1.01c-0.111-0.303-0.252-0.582-0.414-0.834c-0.43-0.678-1.008-1.184-1.569-1.557
			l-0.008,0.003c-0.957-0.634-1.854-0.872-1.854-0.872c-0.315-0.084-0.582-0.176-0.824-0.271c-1.417-0.559-1.645-1.258-1.645-1.258
			l-0.088-0.24l-5.082,1.851l0.088,0.239c0,0,0.275,0.683-0.451,2.021c-0.125,0.229-0.27,0.469-0.457,0.738
			c0,0-0.535,0.76-0.86,1.857l-0.009,0.003c-0.189,0.646-0.307,1.408-0.2,2.201c0.039,0.299,0.108,0.603,0.219,0.904l0.367,1.012
			l0.687,1.879l13.153-4.787L27.312,311.114z"/>
	</g>
	<g>
		<path fill="#FFC107" d="M28.058,345.42l-0.537-0.933c-0.162-0.278-0.35-0.528-0.553-0.75c-0.541-0.592-1.197-0.99-1.814-1.26
			l-0.008,0.004c-1.051-0.457-1.979-0.537-1.979-0.537c-0.326-0.026-0.604-0.069-0.859-0.123c-1.492-0.305-1.838-0.955-1.838-0.955
			l-0.127-0.221l-4.685,2.705l0.127,0.221c0,0,0.392,0.623-0.092,2.068c-0.084,0.246-0.185,0.51-0.323,0.807
			c0,0-0.395,0.842-0.523,1.98l-0.008,0.004c-0.074,0.67-0.059,1.438,0.184,2.203c0.091,0.287,0.213,0.571,0.373,0.854l0.537,0.933
			l1.002,1.729l12.123-6.998L28.058,345.42z"/>
	</g>
	<g>
		<path fill="#FFC107" d="M28.499,379.618l-0.691-0.821c-0.207-0.248-0.436-0.461-0.674-0.646c-0.635-0.488-1.352-0.766-2.006-0.924
			l-0.006,0.005c-1.115-0.268-2.042-0.185-2.042-0.185c-0.326,0.028-0.608,0.034-0.868,0.026c-1.523-0.041-1.976-0.621-1.976-0.621
			l-0.163-0.194l-4.145,3.477l0.164,0.195c0,0,0.491,0.547,0.269,2.055c-0.039,0.256-0.093,0.531-0.179,0.851
			c0,0-0.242,0.897-0.172,2.041l-0.006,0.006c0.041,0.672,0.192,1.428,0.563,2.137c0.139,0.268,0.309,0.527,0.516,0.775l0.69,0.823
			l1.287,1.531l10.724-8.998L28.499,379.618z"/>
	</g>
	<g>
		<path fill="#FFC107" d="M28.621,413.774l-0.823-0.689c-0.248-0.209-0.509-0.379-0.774-0.518c-0.712-0.371-1.466-0.521-2.138-0.563
			l-0.004,0.006c-1.146-0.07-2.043,0.172-2.043,0.172c-0.315,0.086-0.594,0.141-0.852,0.178c-1.508,0.225-2.053-0.268-2.053-0.268
			l-0.195-0.164l-3.477,4.143l0.194,0.164c0,0,0.58,0.453,0.621,1.977c0.006,0.261,0.001,0.541-0.026,0.867
			c0,0-0.084,0.928,0.183,2.041l-0.005,0.006c0.158,0.654,0.438,1.373,0.927,2.009c0.183,0.237,0.396,0.467,0.642,0.674l0.824,0.69
			l1.533,1.285l8.998-10.723L28.621,413.774z"/>
	</g>
	<g>
		<path fill="#FFC107" d="M28.421,447.803l-0.932-0.537c-0.279-0.16-0.566-0.283-0.854-0.375c-0.765-0.242-1.533-0.258-2.201-0.182
			l-0.004,0.008c-1.14,0.128-1.982,0.522-1.982,0.522c-0.295,0.14-0.559,0.24-0.807,0.322c-1.445,0.482-2.067,0.094-2.067,0.094
			l-0.222-0.129l-2.703,4.685l0.221,0.129c0,0,0.648,0.344,0.954,1.838c0.051,0.254,0.095,0.531,0.124,0.858
			c0,0,0.079,0.927,0.535,1.979l-0.004,0.007c0.27,0.617,0.67,1.275,1.26,1.814c0.222,0.205,0.471,0.393,0.75,0.555l0.932,0.537
			l1.732,1l7-12.123L28.421,447.803z"/>
	</g>
	<g>
		<path fill="#FFC107" d="M27.903,482.155l-1.01-0.367c-0.305-0.108-0.607-0.182-0.906-0.221c-0.793-0.104-1.555,0.012-2.199,0.203
			l-0.003,0.008c-1.099,0.324-1.86,0.859-1.86,0.859c-0.268,0.188-0.51,0.334-0.738,0.459c-1.34,0.725-2.021,0.451-2.021,0.451
			l-0.239-0.088l-1.851,5.081l0.239,0.089c0,0,0.699,0.227,1.26,1.645c0.094,0.24,0.186,0.506,0.271,0.824
			c0,0,0.238,0.896,0.871,1.854l-0.002,0.008c0.371,0.561,0.881,1.141,1.557,1.567c0.252,0.164,0.531,0.305,0.834,0.416l1.01,0.367
			l1.881,0.684l4.788-13.153L27.903,482.155z"/>
	</g>
	<g>
		<path fill="#FFC107" d="M27.085,516.491l-1.059-0.186c-0.318-0.055-0.629-0.072-0.93-0.06c-0.801,0.033-1.529,0.281-2.133,0.58
			l-0.002,0.011c-1.025,0.511-1.683,1.17-1.683,1.17c-0.229,0.229-0.442,0.416-0.646,0.578c-1.193,0.946-1.912,0.795-1.912,0.795
			l-0.252-0.045l-0.938,5.325l0.251,0.045c0,0,0.729,0.103,1.525,1.4c0.135,0.221,0.271,0.467,0.41,0.766
			c0,0,0.392,0.845,1.178,1.677v0.008c0.465,0.486,1.065,0.969,1.807,1.272c0.277,0.117,0.575,0.209,0.893,0.265l1.06,0.188
			l1.971,0.349l2.433-13.787L27.085,516.491z"/>
	</g>
	<g>
		<path fill="#FFC107" d="M25.991,550.913h-1.074c-0.324,0.003-0.634,0.039-0.927,0.104c-0.782,0.172-1.457,0.543-1.999,0.943v0.008
			c-0.921,0.682-1.453,1.444-1.453,1.444c-0.188,0.269-0.365,0.486-0.537,0.683c-1.011,1.141-1.744,1.115-1.744,1.115h-0.256v5.407
			h0.256c0,0,0.734-0.024,1.745,1.115c0.171,0.193,0.349,0.412,0.536,0.683c0,0,0.532,0.762,1.453,1.444v0.008
			c0.541,0.398,1.217,0.771,1.999,0.941c0.293,0.065,0.603,0.104,0.926,0.104h1.075h2l0.001-13.997L25.991,550.913z"/>
	</g>
	<g>
		<path fill="#FFC107" d="M26.625,585.276l-1.972,0.346l-1.059,0.188c-0.316,0.059-0.615,0.146-0.894,0.262
			c-0.741,0.308-1.342,0.787-1.806,1.275l0.002,0.009c-0.789,0.831-1.182,1.675-1.182,1.675c-0.137,0.297-0.273,0.543-0.41,0.767
			c-0.797,1.299-1.523,1.401-1.523,1.401l-0.252,0.043l0.939,5.326l0.25-0.045c0,0,0.72-0.152,1.914,0.795
			c0.2,0.16,0.414,0.346,0.646,0.578c0,0,0.654,0.659,1.68,1.172l0.002,0.008c0.604,0.3,1.332,0.547,2.133,0.58
			c0.299,0.015,0.611-0.002,0.93-0.059l1.059-0.188l1.971-0.346L26.625,585.276z"/>
	</g>
	<g>
		<path fill="#FFC107" d="M24.996,620.006l-1.882,0.682l-1.01,0.369c-0.303,0.113-0.581,0.252-0.834,0.414
			c-0.678,0.43-1.185,1.008-1.557,1.567l0.002,0.01c-0.632,0.957-0.871,1.854-0.871,1.854c-0.084,0.314-0.177,0.582-0.271,0.826
			c-0.562,1.416-1.259,1.645-1.259,1.645l-0.24,0.087l1.85,5.081l0.24-0.088c0,0,0.682-0.274,2.021,0.451
			c0.226,0.123,0.468,0.269,0.736,0.457c0,0,0.76,0.534,1.858,0.861l0.003,0.008c0.646,0.188,1.408,0.307,2.201,0.201
			c0.298-0.039,0.604-0.107,0.906-0.22l1.01-0.368l1.881-0.685L24.996,620.006z"/>
	</g>
	<g>
		<path fill="#FFC107" d="M23.154,654.944l-1.733,0.998l-0.932,0.537c-0.278,0.164-0.529,0.35-0.75,0.553
			c-0.592,0.541-0.99,1.199-1.26,1.816l0.004,0.008c-0.457,1.052-0.537,1.979-0.537,1.979c-0.027,0.324-0.071,0.604-0.123,0.859
			c-0.307,1.492-0.954,1.838-0.954,1.838l-0.221,0.127l2.702,4.685l0.224-0.127c0,0,0.622-0.392,2.067,0.092
			c0.244,0.082,0.509,0.182,0.808,0.322c0,0,0.839,0.395,1.979,0.524l0.002,0.006c0.67,0.076,1.44,0.06,2.203-0.184
			c0.287-0.088,0.575-0.211,0.854-0.373l0.931-0.537l1.733-1L23.154,654.944z"/>
	</g>
	<g>
		<path fill="#FFC107" d="M21.156,690.217l-1.534,1.285l-0.822,0.688c-0.246,0.211-0.461,0.437-0.645,0.674
			c-0.488,0.638-0.768,1.354-0.924,2.008l0.004,0.007c-0.268,1.114-0.186,2.043-0.186,2.043c0.03,0.323,0.034,0.604,0.028,0.866
			c-0.042,1.523-0.619,1.978-0.619,1.978l-0.196,0.162l3.477,4.143l0.195-0.162c0,0,0.547-0.492,2.055-0.27
			c0.254,0.039,0.531,0.092,0.85,0.178c0,0,0.896,0.244,2.041,0.174l0.004,0.006c0.674-0.043,1.43-0.192,2.139-0.563
			c0.267-0.138,0.529-0.308,0.775-0.517l0.822-0.69l1.534-1.285L21.156,690.217z"/>
	</g>
	<g>
		<path fill="#FFC107" d="M19.062,725.848l-1.287,1.531l-0.691,0.823c-0.205,0.248-0.377,0.509-0.516,0.775
			c-0.371,0.711-0.521,1.465-0.563,2.137l0.004,0.005c-0.068,1.145,0.174,2.045,0.174,2.045c0.084,0.313,0.139,0.59,0.179,0.848
			c0.223,1.508-0.269,2.055-0.269,2.055l-0.166,0.195l4.146,3.477l0.164-0.194c0,0,0.45-0.58,1.976-0.621
			c0.258-0.006,0.539-0.002,0.868,0.026c0,0,0.927,0.083,2.041-0.184l0.004,0.004c0.655-0.158,1.373-0.438,2.009-0.926
			c0.237-0.183,0.467-0.396,0.674-0.644l0.69-0.823l1.287-1.531L19.062,725.848z"/>
	</g>
	<g>
		<path fill="#FFC107" d="M16.937,761.848l-1.004,1.731l-0.537,0.933c-0.158,0.279-0.283,0.565-0.373,0.852
			c-0.242,0.767-0.26,1.533-0.182,2.203l0.004,0.003c0.131,1.14,0.526,1.983,0.526,1.983c0.14,0.295,0.238,0.559,0.322,0.805
			c0.481,1.445,0.094,2.07,0.094,2.07l-0.129,0.219l4.685,2.705l0.129-0.221c0,0,0.344-0.648,1.838-0.955
			c0.252-0.052,0.529-0.097,0.858-0.123c0,0,0.925-0.078,1.978-0.534l0.006,0.003c0.617-0.27,1.277-0.67,1.816-1.26
			c0.203-0.222,0.393-0.474,0.553-0.75l0.537-0.933l1.002-1.731L16.937,761.848z"/>
	</g>
	<g>
		<path fill="#FFC107" d="M14.843,798.217l-0.688,1.881l-0.367,1.01c-0.107,0.305-0.181,0.607-0.22,0.904
			c-0.104,0.795,0.011,1.555,0.202,2.201l0.007,0.002c0.325,1.101,0.862,1.86,0.862,1.86c0.188,0.269,0.332,0.511,0.457,0.736
			c0.726,1.342,0.451,2.023,0.451,2.023l-0.089,0.237l5.082,1.851l0.089-0.24c0,0,0.227-0.697,1.645-1.258
			c0.24-0.095,0.506-0.188,0.824-0.271c0,0,0.897-0.237,1.854-0.87l0.008,0.003c0.563-0.373,1.141-0.881,1.57-1.557
			c0.162-0.252,0.304-0.533,0.414-0.834l0.367-1.012l0.686-1.879L14.843,798.217z"/>
	</g>
	<g>
		<path fill="#FFC107" d="M12.845,834.946l-0.351,1.971l-0.187,1.06c-0.055,0.318-0.072,0.629-0.06,0.93
			c0.033,0.802,0.281,1.527,0.582,2.131l0.007,0.001c0.512,1.026,1.172,1.686,1.172,1.686c0.23,0.229,0.416,0.442,0.578,0.645
			c0.946,1.195,0.797,1.914,0.797,1.914l-0.047,0.25l5.327,0.939l0.044-0.252c0,0,0.102-0.728,1.401-1.525
			c0.219-0.133,0.465-0.271,0.765-0.41c0,0,0.846-0.389,1.678-1.179l0.004,0.001c0.488-0.465,0.972-1.064,1.276-1.805
			c0.115-0.277,0.207-0.576,0.263-0.894l0.187-1.061l0.349-1.969L12.845,834.946z"/>
	</g>
	<g>
		<g>
			<path fill="#607D8B" d="M24.14,150c-0.861,0-1.207,0-1.207,0H18h-4.932c0,0-0.347,0-1.207,0C11,150,11,150.912,11,150.912V152
				v3.073c0,2.654,2.498,4.39,2.498,4.39c1.849,1.278,1.797,2.28,1.797,2.28V162v0.254c0,0,0.052,1.004-1.797,2.282
				c0,0-2.498,1.734-2.498,4.39V172v1.088c0,0,0,0.912,0.861,0.912c0.86,0,1.207,0,1.207,0H18h4.933c0,0,0.346,0,1.207,0
				c0.86,0,0.86-0.912,0.86-0.912V172v-3.074c0-2.654-2.498-4.39-2.498-4.39c-1.848-1.278-1.797-2.282-1.797-2.282V162v-0.257
				c0,0-0.051-1.002,1.797-2.28c0,0,2.498-1.734,2.498-4.39V152v-1.088C25.001,150.912,25.001,150,24.14,150z M23.228,155.073
				c0,1.67-1.729,2.929-1.734,2.933c-2.334,1.614-2.563,3.186-2.561,3.741V162v0.25c-0.002,0.559,0.225,2.127,2.549,3.735
				c0.018,0.012,1.746,1.269,1.746,2.939v3.073H12.774v-3.073c0-1.672,1.729-2.929,1.734-2.933c2.334-1.617,2.563-3.186,2.561-3.742
				v-0.252v-0.252c0.002-0.557-0.225-2.125-2.549-3.733c-0.019-0.013-1.746-1.271-1.746-2.939V152h10.453V155.073L23.228,155.073z"
				/>
		</g>
	</g>
	<g>
		<g>
			<path fill="#607D8B" d="M24.14,186c-0.861,0-1.207,0-1.207,0H18h-4.932c0,0-0.347,0-1.207,0C11,186,11,186.911,11,186.911V188
				v3.073c0,2.654,2.498,4.39,2.498,4.39c1.849,1.278,1.797,2.28,1.797,2.28V198v0.254c0,0,0.052,1.004-1.797,2.282
				c0,0-2.498,1.734-2.498,4.39V208v1.088c0,0,0,0.912,0.861,0.912c0.86,0,1.207,0,1.207,0H18h4.933c0,0,0.346,0,1.207,0
				c0.86,0,0.86-0.912,0.86-0.912V208v-3.074c0-2.654-2.498-4.39-2.498-4.39c-1.848-1.278-1.797-2.282-1.797-2.282V198v-0.257
				c0,0-0.051-1.002,1.797-2.28c0,0,2.498-1.734,2.498-4.39V188v-1.089C25.001,186.911,25.001,186,24.14,186z M23.228,191.073
				c0,1.67-1.729,2.929-1.734,2.933c-2.334,1.614-2.563,3.186-2.561,3.741V198v0.25c-0.002,0.559,0.225,2.127,2.549,3.735
				c0.018,0.012,1.746,1.269,1.746,2.939v3.073H12.774v-3.073c0-1.672,1.729-2.929,1.734-2.933c2.334-1.617,2.563-3.186,2.561-3.742
				v-0.252v-0.252c0.002-0.557-0.225-2.125-2.549-3.733c-0.019-0.013-1.746-1.271-1.746-2.939v-3.074h10.453V191.073L23.228,191.073
				z"/>
		</g>
	</g>
	<g>
		<g>
			<path fill="#607D8B" d="M24.14,222c-0.861,0-1.207,0-1.207,0H18h-4.932c0,0-0.347,0-1.207,0C11,222,11,222.911,11,222.911V224
				v3.073c0,2.654,2.498,4.39,2.498,4.39c1.849,1.278,1.797,2.28,1.797,2.28V234v0.254c0,0,0.052,1.004-1.797,2.282
				c0,0-2.498,1.734-2.498,4.39V244v1.088c0,0,0,0.912,0.861,0.912c0.86,0,1.207,0,1.207,0H18h4.933c0,0,0.346,0,1.207,0
				c0.86,0,0.86-0.912,0.86-0.912V244v-3.074c0-2.654-2.498-4.39-2.498-4.39c-1.848-1.278-1.797-2.282-1.797-2.282V234v-0.257
				c0,0-0.051-1.002,1.797-2.28c0,0,2.498-1.734,2.498-4.39V224v-1.089C25.001,222.911,25.001,222,24.14,222z M23.228,227.073
				c0,1.67-1.729,2.929-1.734,2.933c-2.334,1.614-2.563,3.186-2.561,3.741V234v0.25c-0.002,0.559,0.225,2.127,2.549,3.735
				c0.018,0.012,1.746,1.269,1.746,2.939v3.073H12.774v-3.073c0-1.672,1.729-2.929,1.734-2.933c2.334-1.617,2.563-3.186,2.561-3.742
				v-0.252v-0.252c0.002-0.557-0.225-2.125-2.549-3.733c-0.019-0.013-1.746-1.271-1.746-2.939v-3.074h10.453V227.073L23.228,227.073
				z"/>
		</g>
	</g>
	<g>
		<g>
			<path fill="#607D8B" d="M21.962,257.115c-0.848,0.15-1.188,0.211-1.188,0.211l-4.857,0.855l-4.855,0.856
				c0,0-0.34,0.06-1.188,0.209c-0.849,0.148-0.688,1.048-0.688,1.048l0.188,1.071l0.535,3.027c0.461,2.613,3.223,3.889,3.223,3.889
				c2.041,0.939,2.166,1.937,2.166,1.937l0.043,0.25l0.045,0.252c0,0,0.224,0.979-1.373,2.559c0,0-2.16,2.144-1.699,4.756
				l0.535,3.027l0.188,1.072c0,0,0.158,0.897,1.008,0.748c0.848-0.148,1.188-0.209,1.188-0.209l4.857-0.857l4.856-0.854
				c0,0,0.34-0.062,1.188-0.209c0.848-0.15,0.688-1.05,0.688-1.05l-0.188-1.069l-0.535-3.027c-0.461-2.615-3.223-3.889-3.223-3.889
				c-2.04-0.939-2.166-1.937-2.166-1.937l-0.043-0.252l-0.045-0.25c0,0-0.223-0.979,1.373-2.561c0,0,2.16-2.142,1.699-4.757
				l-0.534-3.026l-0.188-1.07C22.97,257.865,22.812,256.967,21.962,257.115z M21.946,262.272c0.29,1.645-1.195,3.184-1.199,3.188
				c-2.02,1.997-1.971,3.581-1.873,4.131l0.045,0.248l0.043,0.246c0.096,0.551,0.592,2.055,3.158,3.235
				c0.02,0.01,1.941,0.947,2.23,2.592l0.535,3.027l-10.297,1.816l-0.533-3.027c-0.291-1.646,1.194-3.184,1.199-3.189
				c2.019-1.995,1.971-3.582,1.872-4.129l-0.045-0.248l-0.043-0.248c-0.096-0.549-0.591-2.055-3.157-3.235
				c-0.021-0.008-1.941-0.945-2.23-2.592l-0.535-3.027l10.296-1.814L21.946,262.272z"/>
		</g>
	</g>
	<g>
		<g>
			<path fill="#607D8B" d="M19.665,292.622c-0.811,0.296-1.134,0.414-1.134,0.414l-4.636,1.687l-4.633,1.688
				c0,0-0.324,0.117-1.136,0.412c-0.809,0.295-0.497,1.152-0.497,1.152l0.372,1.021l1.052,2.89c0.907,2.494,3.85,3.27,3.85,3.27
				c2.173,0.572,2.469,1.531,2.469,1.531l0.088,0.238l0.088,0.239c0,0,0.389,0.927-0.908,2.761c0,0-1.756,2.483-0.848,4.979
				l1.051,2.889l0.373,1.021c0,0,0.313,0.857,1.121,0.563c0.811-0.295,1.135-0.411,1.135-0.411l4.635-1.688l4.634-1.688
				c0,0,0.323-0.117,1.135-0.412c0.81-0.293,0.497-1.15,0.497-1.15L28,313.003l-1.051-2.89c-0.908-2.494-3.851-3.27-3.851-3.27
				c-2.172-0.57-2.469-1.529-2.469-1.529l-0.088-0.24l-0.087-0.237c0,0-0.39-0.927,0.908-2.761c0,0,1.755-2.483,0.847-4.979
				l-1.051-2.889l-0.373-1.023C20.786,293.186,20.474,292.327,19.665,292.622z M20.544,297.702c0.572,1.57-0.623,3.345-0.627,3.349
				c-1.641,2.317-1.318,3.871-1.127,4.393l0.086,0.236l0.086,0.235c0.189,0.525,0.939,1.923,3.674,2.64
				c0.021,0.006,2.074,0.596,2.646,2.166l1.052,2.889l-9.824,3.574l-1.051-2.889c-0.572-1.57,0.623-3.343,0.627-3.349
				c1.641-2.315,1.318-3.869,1.127-4.393l-0.086-0.236l-0.086-0.236c-0.189-0.522-0.939-1.92-3.673-2.639
				c-0.021-0.004-2.075-0.594-2.646-2.164l-1.053-2.889l9.824-3.576L20.544,297.702z"/>
		</g>
	</g>
	<g>
		<g>
			<path fill="#607D8B" d="M17.316,328.536c-0.746,0.433-1.044,0.604-1.044,0.604l-4.271,2.467l-4.271,2.467
				c0,0-0.299,0.172-1.045,0.603c-0.746,0.432-0.289,1.221-0.289,1.221l0.543,0.943l1.537,2.662
				c1.328,2.299,4.357,2.551,4.357,2.551c2.239,0.186,2.698,1.078,2.698,1.078l0.127,0.221l0.127,0.221c0,0,0.545,0.845-0.415,2.875
				c0,0-1.296,2.752,0.03,5.052l1.536,2.661l0.546,0.941c0,0,0.454,0.791,1.202,0.359c0.746-0.433,1.043-0.604,1.043-0.604
				l4.271-2.465l4.271-2.467c0,0,0.299-0.172,1.046-0.604c0.745-0.43,0.288-1.221,0.288-1.221l-0.543-0.941l-1.536-2.662
				c-1.328-2.299-4.358-2.553-4.358-2.553c-2.238-0.184-2.697-1.078-2.697-1.078l-0.127-0.221l-0.127-0.219
				c0,0-0.545-0.847,0.414-2.877c0,0,1.297-2.75-0.029-5.05l-1.537-2.661l-0.545-0.943
				C18.519,328.897,18.063,328.108,17.316,328.536z M19.065,333.389c0.835,1.447-0.034,3.399-0.037,3.404
				c-1.213,2.567-0.627,4.041-0.348,4.521l0.127,0.219l0.125,0.218c0.276,0.483,1.258,1.729,4.076,1.961
				c0.021,0.002,2.146,0.227,2.98,1.674l1.538,2.662l-9.056,5.227l-1.537-2.662c-0.834-1.447,0.035-3.399,0.037-3.406
				c1.213-2.565,0.627-4.041,0.348-4.521l-0.126-0.217l-0.125-0.22c-0.277-0.483-1.259-1.729-4.076-1.961
				c-0.021-0.002-2.146-0.225-2.981-1.672l-1.537-2.662l9.055-5.227L19.065,333.389z"/>
		</g>
	</g>
	<g>
		<g>
			<path fill="#607D8B" d="M14.989,364.86c-0.66,0.555-0.924,0.775-0.924,0.775l-3.778,3.172l-3.776,3.17
				c0,0-0.266,0.221-0.926,0.775c-0.66,0.553-0.072,1.252-0.072,1.252l0.697,0.834l1.977,2.354c1.707,2.033,4.736,1.756,4.736,1.756
				c2.236-0.207,2.844,0.592,2.844,0.592l0.162,0.195l0.164,0.195c0,0,0.685,0.735,0.092,2.903c0,0-0.801,2.935,0.906,4.968
				l1.978,2.354l0.698,0.834c0,0,0.586,0.699,1.246,0.146c0.66-0.555,0.924-0.775,0.924-0.775l3.779-3.17l3.775-3.172
				c0,0,0.266-0.221,0.926-0.773c0.66-0.555,0.073-1.254,0.073-1.254l-0.698-0.832l-1.977-2.354
				c-1.707-2.033-4.735-1.756-4.735-1.756c-2.237,0.207-2.844-0.595-2.844-0.595l-0.163-0.194l-0.164-0.193
				c0,0-0.684-0.738-0.091-2.904c0,0,0.8-2.936-0.907-4.969l-1.977-2.354l-0.699-0.832C16.235,365.006,15.649,364.307,14.989,364.86
				z M17.554,369.334c1.074,1.278,0.558,3.354,0.556,3.358c-0.749,2.738,0.085,4.088,0.442,4.514l0.162,0.191l0.162,0.193
				c0.357,0.428,1.539,1.483,4.354,1.223c0.021-0.002,2.154-0.15,3.228,1.131l1.978,2.354l-8.008,6.719l-1.978-2.354
				c-1.074-1.28-0.558-3.354-0.556-3.358c0.75-2.74-0.084-4.09-0.442-4.515l-0.162-0.192l-0.162-0.191
				c-0.356-0.43-1.538-1.483-4.354-1.225c-0.021,0.002-2.152,0.15-3.227-1.129l-1.977-2.355l8.008-6.719L17.554,369.334z"/>
		</g>
	</g>
	<g>
		<g>
			<path fill="#607D8B" d="M12.753,401.584c-0.553,0.659-0.773,0.924-0.773,0.924l-3.172,3.778l-3.168,3.777
				c0,0-0.223,0.264-0.776,0.924s0.146,1.246,0.146,1.246l0.834,0.699l2.354,1.977c2.032,1.707,4.968,0.906,4.968,0.906
				c2.167-0.592,2.903,0.09,2.903,0.09l0.194,0.164l0.195,0.164c0,0,0.801,0.607,0.594,2.844c0,0-0.277,3.029,1.756,4.734
				l2.354,1.977l0.833,0.699c0,0,0.699,0.588,1.254-0.072c0.553-0.661,0.773-0.924,0.773-0.924l3.172-3.778l3.168-3.779
				c0,0,0.223-0.264,0.777-0.922c0.554-0.66-0.146-1.248-0.146-1.248l-0.833-0.699l-2.354-1.977
				c-2.033-1.705-4.969-0.906-4.969-0.906c-2.167,0.592-2.902-0.09-2.902-0.09l-0.195-0.164l-0.195-0.162
				c0,0-0.801-0.607-0.594-2.846c0,0,0.277-3.027-1.756-4.734l-2.354-1.978l-0.834-0.698
				C14.007,401.51,13.308,400.924,12.753,401.584z M16.056,405.543c1.278,1.075,1.131,3.207,1.131,3.213
				c-0.264,2.828,0.793,4.012,1.22,4.367l0.192,0.161l0.192,0.162c0.427,0.359,1.772,1.195,4.5,0.449
				c0.021-0.006,2.095-0.523,3.374,0.551l2.355,1.978l-6.721,8.008l-2.354-1.978c-1.279-1.073-1.132-3.206-1.132-3.211
				c0.265-2.827-0.793-4.014-1.219-4.368l-0.193-0.16l-0.192-0.162c-0.426-0.361-1.772-1.195-4.5-0.449
				c-0.021,0.006-2.094,0.521-3.374-0.553l-2.355-1.976l6.722-8.008L16.056,405.543z"/>
		</g>
	</g>
	<g>
		<g>
			<path fill="#607D8B" d="M10.677,438.553c-0.43,0.748-0.603,1.045-0.603,1.045l-2.466,4.272l-2.465,4.271
				c0,0-0.174,0.299-0.604,1.045c-0.432,0.746,0.358,1.203,0.358,1.203l0.941,0.543l2.662,1.537
				c2.299,1.328,5.051,0.031,5.051,0.031c2.031-0.959,2.875-0.416,2.875-0.416l0.221,0.127l0.222,0.129c0,0,0.894,0.457,1.078,2.696
				c0,0,0.252,3.029,2.551,4.357l2.662,1.537l0.942,0.543c0,0,0.789,0.457,1.222-0.289c0.43-0.746,0.603-1.045,0.603-1.045
				l2.467-4.271l2.465-4.271c0,0,0.173-0.299,0.604-1.043c0.432-0.746-0.359-1.203-0.359-1.203l-0.94-0.545L27.5,447.27
				c-2.299-1.326-5.051-0.029-5.051-0.029c-2.031,0.959-2.874,0.416-2.874,0.416l-0.223-0.129l-0.219-0.127
				c0,0-0.895-0.459-1.08-2.697c0,0-0.252-3.03-2.551-4.356l-2.662-1.537l-0.941-0.545
				C11.897,438.264,11.108,437.807,10.677,438.553z M14.616,441.881c1.447,0.836,1.672,2.961,1.672,2.965
				c0.232,2.832,1.479,3.813,1.96,4.092l0.218,0.125l0.219,0.125c0.481,0.281,1.953,0.869,4.511-0.338
				c0.019-0.01,1.971-0.879,3.418-0.043l2.662,1.537l-5.228,9.053l-2.662-1.537c-1.447-0.836-1.672-2.961-1.672-2.967
				c-0.231-2.83-1.478-3.814-1.959-4.09l-0.219-0.125l-0.218-0.127c-0.482-0.281-1.954-0.867-4.511,0.34
				c-0.019,0.01-1.972,0.877-3.418,0.043l-2.662-1.537l5.228-9.053L14.616,441.881z"/>
		</g>
	</g>
	<g>
		<g>
			<path fill="#607D8B" d="M8.823,476.127c-0.294,0.811-0.412,1.133-0.412,1.133l-1.688,4.637l-1.687,4.633
				c0,0-0.116,0.324-0.413,1.133c-0.295,0.812,0.563,1.123,0.563,1.123l1.021,0.373l2.889,1.052
				c2.494,0.907,4.979-0.849,4.979-0.849c1.834-1.297,2.759-0.908,2.759-0.908l0.24,0.088l0.239,0.089c0,0,0.96,0.295,1.53,2.469
				c0,0,0.773,2.938,3.269,3.848L25.005,496l1.021,0.37c0,0,0.856,0.313,1.151-0.495c0.295-0.812,0.412-1.136,0.412-1.136
				l1.688-4.635l1.688-4.635c0,0,0.116-0.324,0.412-1.133c0.295-0.81-0.563-1.123-0.563-1.123l-1.021-0.371l-2.889-1.052
				c-2.494-0.907-4.979,0.847-4.979,0.847c-1.834,1.297-2.76,0.91-2.76,0.91l-0.24-0.089l-0.238-0.088c0,0-0.961-0.297-1.53-2.469
				c0,0-0.774-2.94-3.269-3.85l-2.891-1.051l-1.021-0.371C9.976,475.631,9.118,475.317,8.823,476.127z M13.28,478.719
				c1.57,0.572,2.16,2.627,2.161,2.631c0.72,2.748,2.118,3.5,2.642,3.688l0.236,0.084l0.234,0.087
				c0.524,0.192,2.076,0.518,4.385-1.115c0.016-0.015,1.789-1.207,3.357-0.638l2.891,1.052l-3.577,9.823l-2.888-1.053
				c-1.57-0.572-2.16-2.625-2.162-2.631c-0.719-2.746-2.117-3.5-2.642-3.688l-0.235-0.087l-0.235-0.086
				c-0.524-0.192-2.075-0.516-4.384,1.117c-0.016,0.015-1.789,1.207-3.358,0.638l-2.89-1.054l3.576-9.821L13.28,478.719z"/>
		</g>
	</g>
	<g>
		<g>
			<path fill="#607D8B" d="M7.248,513.87c-0.147,0.849-0.209,1.188-0.209,1.188l-0.854,4.856l-0.856,4.857c0,0-0.06,0.34-0.21,1.188
				c-0.148,0.848,0.749,1.008,0.749,1.008l1.069,0.188l3.029,0.533c2.613,0.461,4.756-1.699,4.756-1.699
				c1.58-1.596,2.56-1.375,2.56-1.375l0.251,0.045l0.251,0.045c0,0,0.997,0.125,1.937,2.166c0,0,1.272,2.763,3.889,3.224
				l3.027,0.533l1.069,0.188c0,0,0.899,0.158,1.05-0.688c0.148-0.851,0.209-1.188,0.209-1.188l0.855-4.858l0.855-4.855
				c0,0,0.061-0.34,0.211-1.188c0.148-0.849-0.75-1.009-0.75-1.009l-1.069-0.188l-3.028-0.533c-2.613-0.461-4.757,1.699-4.757,1.699
				c-1.58,1.596-2.56,1.373-2.56,1.373l-0.25-0.045l-0.252-0.043c0,0-0.996-0.128-1.936-2.166c0,0-1.273-2.763-3.889-3.224
				l-3.027-0.533l-1.07-0.188C8.298,513.182,7.397,513.022,7.248,513.87z M12.089,515.651c1.646,0.289,2.582,2.211,2.584,2.215
				c1.188,2.58,2.693,3.078,3.242,3.174l0.247,0.044l0.247,0.043c0.549,0.1,2.134,0.147,4.123-1.859
				c0.014-0.018,1.553-1.5,3.197-1.211l3.027,0.533l-1.816,10.297l-3.026-0.535c-1.646-0.291-2.583-2.211-2.585-2.215
				c-1.188-2.582-2.693-3.08-3.242-3.174l-0.246-0.043l-0.248-0.045c-0.549-0.101-2.133-0.146-4.123,1.86
				c-0.014,0.017-1.553,1.5-3.197,1.211l-3.026-0.535l1.815-10.295L12.089,515.651z"/>
		</g>
	</g>
	<g>
		<g>
			<path fill="#607D8B" d="M6,551.776c0.001,0.863,0,1.207,0,1.207l0.001,4.934l0.001,4.931c0,0-0.001,0.346-0.001,1.207
				c0,0.86,0.913,0.86,0.913,0.86l1.087,0.002l3.074-0.002c2.654,0,4.389-2.498,4.389-2.498c1.28-1.846,2.281-1.797,2.281-1.797
				h0.256h0.256c0,0,1.002-0.049,2.281,1.797c0,0,1.732,2.498,4.389,2.498h3.074h1.088c0,0,0.912,0,0.914-0.86
				c-0.002-0.861,0-1.205,0-1.205l-0.002-4.935L30,552.983c0,0,0.001-0.346,0.001-1.205c0-0.861-0.912-0.863-0.912-0.863h-1.088
				h-3.074c-2.653,0-4.389,2.5-4.389,2.5c-1.279,1.847-2.281,1.797-2.281,1.797h-0.256h-0.254c0,0-1.004,0.05-2.283-1.797
				c0,0-1.732-2.5-4.389-2.498H8.001H6.913C6.913,550.916,6.001,550.913,6,551.776z M11.075,552.688c1.672,0,2.928,1.729,2.93,1.732
				c1.617,2.336,3.188,2.563,3.744,2.563h0.252h0.25c0.559,0.004,2.127-0.225,3.737-2.547c0.011-0.021,1.269-1.748,2.938-1.748H28
				l-0.001,10.455l-3.072-0.002c-1.672,0-2.929-1.729-2.931-1.732c-1.616-2.336-3.188-2.563-3.744-2.563H18h-0.25
				c-0.559-0.002-2.127,0.227-3.737,2.549c-0.011,0.018-1.269,1.746-2.938,1.748H8.001l0.001-10.455H11.075z"/>
		</g>
	</g>
	<g>
		<g>
			<path fill="#607D8B" d="M5.116,589.942c0.15,0.85,0.209,1.188,0.209,1.188l0.859,4.858l0.854,4.855c0,0,0.062,0.34,0.209,1.188
				c0.147,0.849,1.05,0.691,1.05,0.691l1.069-0.189L12.394,602c2.615-0.461,3.89-3.225,3.89-3.225
				c0.938-2.039,1.937-2.166,1.937-2.166l0.25-0.043l0.252-0.045c0,0,0.979-0.223,2.561,1.373c0,0,2.141,2.16,4.755,1.699
				l3.028-0.533l1.07-0.189c0,0,0.897-0.158,0.75-1.006c-0.15-0.85-0.209-1.188-0.209-1.188l-0.859-4.857l-0.855-4.854
				c0,0-0.061-0.343-0.209-1.188c-0.148-0.85-1.049-0.691-1.049-0.691l-1.07,0.188l-3.027,0.535
				c-2.614,0.461-3.889,3.223-3.889,3.223c-0.938,2.041-1.935,2.168-1.935,2.168l-0.252,0.043l-0.251,0.043
				c0,0-0.979,0.224-2.561-1.373c0,0-2.142-2.159-4.756-1.696l-3.025,0.532l-1.072,0.189C5.866,588.936,4.968,589.094,5.116,589.942
				z M10.272,589.959c1.646-0.291,3.184,1.192,3.188,1.196c1.997,2.021,3.584,1.972,4.131,1.873l0.248-0.043l0.246-0.045
				c0.551-0.094,2.057-0.59,3.238-3.158c0.008-0.02,0.945-1.938,2.59-2.229l3.029-0.535l1.813,10.297l-3.025,0.533
				c-1.646,0.289-3.184-1.193-3.188-1.197c-1.997-2.02-3.584-1.973-4.131-1.873l-0.248,0.043l-0.246,0.043
				c-0.551,0.095-2.056,0.592-3.237,3.158c-0.008,0.021-0.946,1.941-2.59,2.232l-3.029,0.533L7.246,590.49L10.272,589.959z"/>
		</g>
	</g>
	<g>
		<g>
			<path fill="#607D8B" d="M4.624,628.336c0.297,0.811,0.412,1.133,0.412,1.133l1.689,4.637l1.687,4.633
				c0,0,0.118,0.324,0.411,1.133c0.295,0.812,1.152,0.498,1.152,0.498l1.022-0.371l2.89-1.051c2.494-0.908,3.27-3.852,3.27-3.852
				c0.57-2.172,1.529-2.469,1.529-2.469l0.238-0.086l0.24-0.089c0,0,0.926-0.389,2.76,0.908c0,0,2.482,1.756,4.979,0.849
				l2.889-1.054l1.021-0.371c0,0,0.857-0.313,0.563-1.12c-0.296-0.812-0.411-1.136-0.411-1.136l-1.689-4.635l-1.688-4.633
				c0,0-0.117-0.326-0.41-1.133c-0.295-0.812-1.152-0.5-1.152-0.5l-1.023,0.371l-2.889,1.053c-2.494,0.908-3.27,3.85-3.27,3.85
				c-0.57,2.172-1.528,2.472-1.528,2.472l-0.24,0.086l-0.239,0.086c0,0-0.926,0.391-2.76-0.908c0,0-2.482-1.754-4.979-0.846
				l-2.89,1.051l-1.021,0.373C5.188,627.215,4.33,627.526,4.624,628.336z M9.706,627.456c1.57-0.571,3.342,0.623,3.346,0.625
				c2.317,1.644,3.871,1.32,4.396,1.128l0.235-0.084l0.234-0.087c0.526-0.188,1.924-0.938,2.641-3.674
				c0.004-0.02,0.596-2.073,2.164-2.646l2.89-1.053l3.573,9.825l-2.889,1.05c-1.57,0.571-3.342-0.621-3.346-0.625
				c-2.316-1.644-3.871-1.318-4.395-1.128l-0.236,0.087l-0.234,0.086c-0.525,0.188-1.922,0.938-2.641,3.672
				c-0.004,0.021-0.596,2.076-2.164,2.647l-2.889,1.052l-3.574-9.826L9.706,627.456z"/>
		</g>
	</g>
	<g>
		<g>
			<path fill="#607D8B" d="M4.538,666.684c0.432,0.746,0.604,1.045,0.604,1.045L7.611,672l2.465,4.27c0,0,0.173,0.301,0.603,1.045
				c0.431,0.746,1.223,0.291,1.223,0.291l0.941-0.543l2.662-1.537c2.299-1.328,2.551-4.359,2.551-4.359
				c0.187-2.237,1.078-2.696,1.078-2.696l0.221-0.127l0.223-0.127c0,0,0.844-0.545,2.875,0.414c0,0,2.749,1.297,5.049-0.029
				l2.662-1.539l0.941-0.543c0,0,0.791-0.455,0.361-1.203c-0.433-0.746-0.604-1.045-0.604-1.045l-2.47-4.271l-2.465-4.27
				c0,0-0.172-0.299-0.602-1.043c-0.432-0.748-1.223-0.293-1.223-0.293l-0.941,0.543l-2.662,1.539
				c-2.299,1.326-2.552,4.358-2.552,4.358c-0.187,2.238-1.077,2.697-1.077,2.697l-0.221,0.127l-0.221,0.127
				c0,0-0.846,0.545-2.877-0.416c0,0-2.75-1.297-5.049,0.031l-2.662,1.537l-0.941,0.545C4.899,665.483,4.108,665.938,4.538,666.684z
				 M9.39,664.938c1.446-0.838,3.399,0.031,3.403,0.033c2.567,1.215,4.042,0.627,4.523,0.348l0.218-0.125l0.217-0.125
				c0.485-0.276,1.729-1.26,1.963-4.076c0-0.021,0.225-2.146,1.672-2.981l2.662-1.537l5.227,9.055l-2.662,1.535
				c-1.447,0.836-3.4-0.033-3.404-0.035c-2.566-1.215-4.042-0.627-4.523-0.346l-0.217,0.125l-0.218,0.125
				c-0.485,0.277-1.729,1.258-1.963,4.076c0.001,0.02-0.226,2.146-1.671,2.981l-2.662,1.537l-5.227-9.057L9.39,664.938z"/>
		</g>
	</g>
	<g>
		<g>
			<path fill="#607D8B" d="M4.861,705.01c0.556,0.662,0.776,0.926,0.776,0.926l3.172,3.777l3.17,3.776c0,0,0.222,0.267,0.772,0.924
				c0.554,0.66,1.255,0.074,1.255,0.074l0.834-0.697l2.354-1.977c2.033-1.707,1.756-4.736,1.756-4.736
				c-0.206-2.235,0.593-2.844,0.593-2.844l0.195-0.164l0.196-0.162c0,0,0.734-0.684,2.902-0.092c0,0,2.934,0.801,4.967-0.906
				l2.355-1.977l0.832-0.699c0,0,0.7-0.586,0.146-1.246c-0.556-0.66-0.775-0.926-0.775-0.926l-3.172-3.777l-3.17-3.776
				c0,0-0.223-0.265-0.773-0.922c-0.554-0.662-1.254-0.076-1.254-0.076l-0.834,0.699l-2.354,1.977
				c-2.035,1.705-1.756,4.736-1.756,4.736c0.205,2.235-0.592,2.844-0.592,2.844l-0.197,0.162l-0.194,0.164
				c0,0-0.736,0.684-2.904,0.09c0,0-2.935-0.799-4.967,0.906l-2.354,1.979l-0.832,0.699C5.009,703.766,4.308,704.35,4.861,705.01z
				 M9.337,702.448c1.279-1.076,3.354-0.559,3.357-0.559c2.738,0.752,4.09-0.084,4.515-0.443l0.193-0.162l0.19-0.159
				c0.43-0.357,1.485-1.539,1.227-4.355c-0.004-0.02-0.152-2.152,1.127-3.227l2.355-1.978l6.719,8.012l-2.355,1.974
				c-1.279,1.076-3.354,0.559-3.357,0.557c-2.738-0.75-4.09,0.086-4.515,0.445l-0.192,0.16l-0.191,0.16
				c-0.43,0.356-1.482,1.541-1.227,4.354c0.004,0.021,0.152,2.152-1.127,3.229l-2.354,1.975l-6.72-8.01L9.337,702.448z"/>
		</g>
	</g>
	<g>
		<g>
			<path fill="#607D8B" d="M5.584,743.245c0.661,0.556,0.925,0.775,0.925,0.775l3.779,3.17l3.777,3.17c0,0,0.266,0.224,0.923,0.775
				c0.66,0.555,1.249-0.146,1.249-0.146l0.699-0.832l1.975-2.354c1.707-2.033,0.907-4.969,0.907-4.969
				c-0.591-2.169,0.09-2.904,0.09-2.904l0.165-0.193l0.164-0.194c0,0,0.605-0.802,2.844-0.595c0,0,3.027,0.277,4.734-1.756
				l1.976-2.354l0.698-0.834c0,0,0.588-0.697-0.071-1.252c-0.661-0.556-0.925-0.775-0.925-0.775l-3.779-3.17l-3.777-3.17
				c0,0-0.266-0.221-0.924-0.773c-0.658-0.555-1.246,0.144-1.246,0.144l-0.7,0.834l-1.976,2.354
				c-1.707,2.035-0.906,4.972-0.906,4.972c0.591,2.166-0.09,2.901-0.09,2.901l-0.166,0.195l-0.162,0.195
				c0,0-0.606,0.801-2.846,0.594c0,0-3.027-0.279-4.734,1.754l-1.975,2.356l-0.699,0.832C5.513,741.993,4.925,742.692,5.584,743.245
				z M9.546,739.948c1.074-1.283,3.205-1.133,3.211-1.133c2.827,0.264,4.012-0.795,4.368-1.223l0.163-0.191l0.16-0.19
				c0.361-0.427,1.195-1.773,0.451-4.503c-0.008-0.018-0.523-2.094,0.549-3.372l1.977-2.355l8.008,6.723l-1.977,2.353
				c-1.074,1.281-3.205,1.133-3.21,1.133c-2.828-0.266-4.013,0.793-4.369,1.221l-0.163,0.191l-0.16,0.191
				c-0.36,0.428-1.192,1.774-0.451,4.502c0.009,0.02,0.523,2.094-0.549,3.375l-1.977,2.354l-8.009-6.721L9.546,739.948z"/>
		</g>
	</g>
	<g>
		<g>
			<path fill="#607D8B" d="M6.683,781.323c0.748,0.433,1.045,0.604,1.045,0.604l4.273,2.465l4.271,2.467
				c0,0,0.299,0.172,1.043,0.603c0.746,0.432,1.205-0.357,1.205-0.357l0.543-0.941l1.537-2.661c1.326-2.3,0.029-5.052,0.029-5.052
				c-0.959-2.03-0.416-2.875-0.416-2.875l0.129-0.221l0.129-0.221c0,0,0.457-0.896,2.696-1.078c0,0,3.029-0.252,4.357-2.551
				l1.536-2.664l0.543-0.941c0,0,0.457-0.789-0.288-1.221c-0.746-0.433-1.046-0.604-1.046-0.604l-4.271-2.465l-4.271-2.465
				c0,0-0.299-0.174-1.043-0.604c-0.746-0.432-1.203,0.357-1.203,0.357l-0.545,0.943l-1.536,2.661
				c-1.327,2.3-0.029,5.052-0.029,5.052c0.958,2.03,0.416,2.875,0.416,2.875l-0.129,0.219l-0.127,0.223c0,0-0.459,0.894-2.699,1.078
				c0,0-3.028,0.25-4.356,2.551L6.94,779.16l-0.545,0.943C6.396,780.104,5.938,780.891,6.683,781.323z M10.013,777.385
				c0.834-1.449,2.961-1.672,2.965-1.672c2.83-0.232,3.814-1.479,4.091-1.963l0.127-0.218l0.125-0.215
				c0.28-0.483,0.868-1.955-0.338-4.512c-0.011-0.019-0.88-1.974-0.046-3.418l1.537-2.662l9.056,5.229l-1.539,2.658
				c-0.834,1.449-2.96,1.672-2.965,1.674c-2.83,0.23-3.814,1.479-4.091,1.961l-0.127,0.218l-0.125,0.217
				c-0.28,0.481-0.866,1.955,0.338,4.512c0.012,0.019,0.88,1.971,0.046,3.418l-1.537,2.662l-9.056-5.229L10.013,777.385z"/>
		</g>
	</g>
	<g>
		<g>
			<path fill="#607D8B" d="M8.128,819.178c0.811,0.295,1.133,0.412,1.133,0.412l4.637,1.686l4.635,1.686
				c0,0,0.324,0.119,1.132,0.414c0.81,0.295,1.125-0.563,1.125-0.563l0.371-1.021l1.051-2.889c0.908-2.494-0.848-4.979-0.848-4.979
				c-1.297-1.834-0.908-2.759-0.908-2.759l0.088-0.239l0.089-0.24c0,0,0.295-0.959,2.469-1.529c0,0,2.939-0.772,3.85-3.27
				l1.051-2.89l0.371-1.021c0,0,0.313-0.857-0.496-1.152c-0.811-0.295-1.135-0.414-1.135-0.414l-4.635-1.684l-4.635-1.688
				c0,0-0.324-0.116-1.131-0.411c-0.811-0.296-1.125,0.561-1.125,0.561l-0.371,1.023l-1.052,2.889
				c-0.907,2.494,0.849,4.979,0.849,4.979c1.297,1.834,0.908,2.761,0.908,2.761l-0.089,0.237l-0.087,0.24
				c0,0-0.297,0.959-2.471,1.531c0,0-2.939,0.772-3.85,3.268l-1.049,2.892l-0.373,1.021C7.632,818.026,7.318,818.881,8.128,819.178z
				 M10.722,814.721c0.57-1.572,2.625-2.16,2.629-2.162c2.748-0.719,3.5-2.119,3.688-2.643l0.088-0.234l0.087-0.234
				c0.191-0.524,0.516-2.076-1.117-4.385c-0.015-0.016-1.207-1.789-0.638-3.359l1.052-2.889l9.824,3.578l-1.054,2.885
				c-0.57,1.572-2.625,2.162-2.629,2.162c-2.748,0.719-3.5,2.119-3.688,2.643l-0.088,0.236l-0.086,0.234
				c-0.191,0.524-0.515,2.076,1.117,4.385c0.014,0.016,1.207,1.789,0.639,3.359l-1.053,2.889l-9.826-3.578L10.722,814.721z"/>
		</g>
	</g>
	<g>
		<g>
			<path fill="#607D8B" d="M9.871,856.752c0.851,0.149,1.188,0.209,1.188,0.209l4.856,0.854l4.856,0.855
				c0,0,0.341,0.061,1.187,0.211c0.849,0.149,1.011-0.748,1.011-0.748l0.188-1.072l0.533-3.025c0.461-2.614-1.699-4.758-1.699-4.758
				c-1.597-1.582-1.374-2.559-1.374-2.559l0.046-0.252l0.044-0.252c0,0,0.124-0.996,2.166-1.937c0,0,2.762-1.271,3.223-3.887
				l0.533-3.029l0.188-1.07c0,0,0.159-0.896-0.688-1.049c-0.851-0.147-1.188-0.209-1.188-0.209l-4.857-0.854l-4.856-0.857
				c0,0-0.34-0.059-1.187-0.209c-0.849-0.149-1.009,0.748-1.009,0.748l-0.189,1.07l-0.533,3.026
				c-0.461,2.615,1.699,4.759,1.699,4.759c1.596,1.58,1.375,2.559,1.375,2.559l-0.047,0.25l-0.043,0.252
				c0,0-0.126,0.996-2.168,1.938c0,0-2.76,1.271-3.222,3.887l-0.532,3.027l-0.188,1.071C9.183,855.704,9.022,856.602,9.871,856.752z
				 M11.653,851.913c0.287-1.647,2.209-2.584,2.213-2.586c2.58-1.186,3.078-2.694,3.172-3.241l0.045-0.248l0.045-0.246
				c0.098-0.551,0.146-2.133-1.861-4.123c-0.016-0.014-1.5-1.553-1.211-3.197l0.535-3.027l10.295,1.816l-0.537,3.025
				c-0.287,1.646-2.209,2.584-2.213,2.586c-2.58,1.184-3.078,2.692-3.172,3.242l-0.045,0.245l-0.045,0.246
				c-0.098,0.552-0.146,2.136,1.861,4.125c0.016,0.015,1.5,1.554,1.211,3.197l-0.534,3.027l-10.297-1.816L11.653,851.913z"/>
		</g>
	</g>
	<g>
		<path fill="#607D8B" d="M24.14,6c-0.861,0-1.207,0-1.207,0H18h-4.932c0,0-0.347,0-1.207,0C11,6,11,6.912,11,6.912V8v3.074
			c0,2.653,2.498,4.389,2.498,4.389c1.849,1.279,1.797,2.282,1.797,2.282V18v0.255c0,0,0.052,1.003-1.797,2.282
			c0,0-2.498,1.733-2.498,4.389V28v1.088c0,0,0,0.912,0.861,0.912c0.86,0,1.207,0,1.207,0H18h4.933c0,0,0.346,0,1.207,0
			C25,30,25,29.088,25,29.088V28v-3.074c0-2.654-2.498-4.389-2.498-4.389c-1.848-1.279-1.797-2.282-1.797-2.282V18v-0.255
			c0,0-0.051-1.003,1.797-2.282c0,0,2.498-1.734,2.498-4.389V8V6.912C25.001,6.912,25.001,6,24.14,6z M23.228,11.074
			c0,1.671-1.729,2.928-1.734,2.932c-2.334,1.616-2.563,3.186-2.561,3.742V18v0.251c-0.002,0.558,0.225,2.126,2.549,3.734
			c0.018,0.013,1.746,1.27,1.746,2.939v3.074H12.774v-3.074c0-1.671,1.729-2.928,1.734-2.932c2.334-1.616,2.563-3.187,2.561-3.742
			v-0.252v-0.251c0.002-0.559-0.225-2.126-2.549-3.735c-0.019-0.012-1.746-1.269-1.746-2.938V8h10.453V11.074L23.228,11.074z"/>
	</g>
</g>
</svg>
